<?xml version="1.0" encoding="UTF-8" standalone="no"?>
<svg
   xmlns:dc="http://purl.org/dc/elements/1.1/"
   xmlns:cc="http://creativecommons.org/ns#"
   xmlns:rdf="http://www.w3.org/1999/02/22-rdf-syntax-ns#"
   xmlns:svg="http://www.w3.org/2000/svg"
   xmlns="http://www.w3.org/2000/svg"
   xmlns:xlink="http://www.w3.org/1999/xlink"
   xmlns:sodipodi="http://sodipodi.sourceforge.net/DTD/sodipodi-0.dtd"
   xmlns:inkscape="http://www.inkscape.org/namespaces/inkscape"
   id="svg2"
   viewBox="0 0 400 400"
   width="400"
   height="400"
   version="1.1"
   sodipodi:docname="snap-clock-.svg"
   inkscape:version="0.92.4 (5da689c313, 2019-01-14)">
  <sodipodi:namedview
     pagecolor="#ffffff"
     bordercolor="#666666"
     borderopacity="1"
     objecttolerance="10"
     gridtolerance="10"
     guidetolerance="10"
     inkscape:pageopacity="1"
     inkscape:pageshadow="2"
     inkscape:window-width="1920"
     inkscape:window-height="1051"
     id="namedview58"
     showgrid="false"
     inkscape:zoom="1.2268349"
     inkscape:cx="302.18917"
     inkscape:cy="114.10437"
     inkscape:window-x="-9"
     inkscape:window-y="-9"
     inkscape:window-maximized="1"
     inkscape:current-layer="svg2" />
  <defs
     id="defs4">
    <linearGradient
       id="linearGradient8559">
      <stop
         id="stop8561"
         style="stop-color:#e6e6e6;stop-opacity:1"
         offset="0" />
      <stop
         id="stop8563"
         style="stop-color:#ffffff;stop-opacity:1"
         offset="1" />
    </linearGradient>
    <linearGradient
       id="linearGradient8452">
      <stop
         id="stop8454"
         style="stop-color:#c6c6c6;stop-opacity:1"
         offset="0" />
      <stop
         id="stop8456"
         style="stop-color:#eeeeee;stop-opacity:1"
         offset="1" />
    </linearGradient>
    <linearGradient
       id="linearGradient8458"
       gradientUnits="userSpaceOnUse"
       x1="343"
       y1="343"
       x2="55.9992"
       y2="55.9993"
       xlink:href="#linearGradient8452" />
    <linearGradient
       id="linearGradient8565"
       gradientUnits="userSpaceOnUse"
       x1="340.425"
       y1="340.425"
       x2="59.5747"
       y2="59.5746"
       xlink:href="#linearGradient8559" />
    <filter
       id="filter8418"
       style="color-interpolation-filters:sRGB;">
      <feFlood
         id="feFlood8420"
         flood-color="rgb(0, 0, 0)"
         flood-opacity="0.0941176"
         result="flood" />
      <feComposite
         id="feComposite8422"
         result="composite1"
         in="flood"
         in2="SourceGraphic"
         operator="in" />
      <feGaussianBlur
         id="feGaussianBlur8424"
         result="blur"
         in="composite1"
         stdDeviation="0" />
      <feOffset
         id="feOffset8426"
         result="offset"
         dx="4"
         dy="4" />
      <feComposite
         id="feComposite8428"
         result="composite2"
         in="SourceGraphic"
         in2="offset"
         operator="over" />
    </filter>
  </defs>
  <metadata
     id="metadata7">
    <rdf:rdf>
      <cc:work
         rdf:about="">
        <dc:format>image/svg+xml</dc:format>
        <dc:type
           rdf:resource="http://purl.org/dc/dcmitype/StillImage" />
        <dc:title />
      </cc:work>
    </rdf:rdf>
    <rdf:RDF>
      <cc:Work
         rdf:about="">
        <dc:format>image/svg+xml</dc:format>
        <dc:type
           rdf:resource="http://purl.org/dc/dcmitype/StillImage" />
        <dc:title></dc:title>
      </cc:Work>
    </rdf:RDF>
  </metadata>
  <circle
     id="circle8552"
     style="opacity:1;fill:url(#linearGradient8565);fill-opacity:1;stroke:none;stroke-width:11.3493948;stroke-linecap:round;stroke-linejoin:round;stroke-miterlimit:4;stroke-dasharray:none;stroke-dashoffset:0;stroke-opacity:1"
     cx="200"
     cy="200"
     r="194.325" />
  <g
     id="text8280"
     style="font-style:normal;font-variant:normal;font-weight:300;font-stretch:normal;font-size:50px;line-height:125%;font-family:Roboto;-inkscape-font-specification:'Roboto Light';letter-spacing:0px;word-spacing:0px;fill:#000000;fill-opacity:1;stroke:none;stroke-width:1px;stroke-linecap:butt;stroke-linejoin:miter;stroke-opacity:1">
    <path
       id="path8427"
       style=""
       d="m 186.462 77.0184 l -1.31836 0 l 0 -34.79 l -8.98437 1.9043 l 0 -1.12305 l 10.3027 -2.05078 l 0 36.0596 Z" />
    <path
       id="path8429"
       style=""
       d="m 223.84 77.0184 l -21.2647 0 l 0 -1.31836 l 12.1338 -13.9648 q 3.24707 -3.75977 4.56543 -6.27441 q 1.31836 -2.53906 1.31836 -4.95606 q 0 -3.95508 -2.00195 -6.0791 q -2.00195 -2.14844 -6.17676 -2.14844 q -4.37012 0 -6.76269 2.56348 q -2.39258 2.56348 -2.39258 6.64063 l -1.12305 0 l -0.0488 -0.146485 q -0.12207 -4.32129 2.70996 -7.34863 q 2.85645 -3.02734 7.61719 -3.02734 q 4.37012 0 6.93359 2.49023 q 2.5879 2.49024 2.5879 7.05566 q 0 2.9541 -1.92872 6.03027 q -1.90429 3.07617 -5.3955 7.15332 l -10.1807 11.8896 l 0.0488 0.122071 l 19.3603 0 l 0 1.31836 Z" />
  </g>
  <g
     id="text8280-1"
     style="font-style:normal;font-variant:normal;font-weight:300;font-stretch:normal;font-size:50px;line-height:125%;font-family:Roboto;-inkscape-font-specification:'Roboto Light';letter-spacing:0px;word-spacing:0px;fill:#000000;fill-opacity:1;stroke:none;stroke-width:1px;stroke-linecap:butt;stroke-linejoin:miter;stroke-opacity:1">
    <path
       id="path8424"
       style=""
       d="m 272.19 103.78 l -1.31836 0 l 0 -34.79 l -8.98438 1.9043 l 0 -1.12305 l 10.3027 -2.05078 l 0 36.0596 Z" />
  </g>
  <path
     id="path8264"
     style="fill:none;fill-rule:evenodd;stroke:#000000;stroke-width:1;stroke-linecap:butt;stroke-linejoin:miter;stroke-opacity:1;stroke-miterlimit:4;stroke-dasharray:none"
     d="m 385.136 200 c -7.73909 0 -15.4782 0 -23.2173 0 m 21.9552 19.4064 l -11.4268 -1.366 m 8.00815 20.337 l -11.1604 -2.64743 m 5.71749 21.0507 l -10.8094 -3.84426 m 3.47465 21.5473 l -10.3739 -4.9565 m 1.27963 21.8269 l -19.7074 -11.9683 m 8.98613 27.8737 l -9.24898 -6.92725 m -2.96695 21.7352 l -8.55965 -7.78574 m -5.01851 21.3639 l -7.78574 -8.55965 m -7.02224 20.7756 l -6.92725 -9.24897 m -8.97816 19.9702 l -11.9683 -19.7074 m -4.9021 28.8016 l -4.9565 -10.3739 m -12.7465 17.7087 l -3.84426 -10.8094 m -14.559 16.2524 l -2.64743 -11.1604 m -16.3236 14.5791 l -1.366 -11.4268 M 200 385.135 c 0 -7.73908 0 -15.4782 0 -23.2173 m -19.4064 21.9553 l 1.366 -11.4268 m -20.337 8.00816 l 2.64742 -11.1604 m -21.0507 5.71749 l 3.84426 -10.8094 m -21.5473 3.47465 l 4.95651 -10.3739 m -21.8269 1.27963 l 11.9683 -19.7074 m -27.8738 8.98612 l 6.92725 -9.24897 m -21.7352 -2.96695 l 7.78574 -8.55965 m -21.3639 -5.0185 l 8.55965 -7.78574 m -20.7756 -7.02226 l 9.24897 -6.92725 m -19.9703 -8.97815 l 19.7074 -11.9683 m -28.8016 -4.90209 l 10.3739 -4.95651 M 24.9881 256.781 L 35.7975 252.936 M 19.5451 238.377 L 30.7055 235.73 m -14.5791 -16.3236 l 11.4268 -1.366 M 14.8645 200 c 7.73908 0 15.4782 0 23.2172 0 m -21.9553 -19.4064 l 11.4268 1.366 m -8.00815 -20.337 l 11.1604 2.64742 m -5.71749 -21.0507 l 10.8094 3.84426 m -3.47464 -21.5473 l 10.3739 4.9565 m -1.27963 -21.8269 l 19.7074 11.9683 m -8.98613 -27.8737 l 9.24897 6.92725 m 2.96696 -21.7352 l 8.55965 7.78574 m 5.01851 -21.3639 l 7.78574 8.55965 m 7.02224 -20.7756 l 6.92725 9.24897 m 8.97817 -19.9703 l 11.9683 19.7074 m 4.90209 -28.8016 l 4.95651 10.3739 m 12.7465 -17.7086 l 3.84426 10.8094 m 14.559 -16.2524 l 2.64742 11.1604 m 16.3236 -14.5791 l 1.366 11.4268 m 18.0404 -12.6888 c 0 7.73908 0 15.4782 0 23.2172 m 19.4064 -21.9553 l -1.366 11.4268 m 20.337 -8.00816 l -2.64743 11.1604 m 21.0507 -5.71749 l -3.84426 10.8094 m 21.5473 -3.47465 l -4.9565 10.3739 m 21.8269 -1.27962 l -11.9683 19.7074 m 27.8737 -8.98613 l -6.92725 9.24897 m 21.7352 2.96695 l -7.78574 8.55965 m 21.3639 5.01852 l -8.55965 7.78574 m 20.7756 7.02224 l -9.24897 6.92725 m 19.9702 8.97816 l -19.7074 11.9683 m 28.8016 4.9021 l -10.3739 4.95651 m 17.7087 12.7465 l -10.8094 3.84426 m 16.2524 14.559 l -11.1604 2.64742 m 14.5791 16.3236 l -11.4268 1.366 M 385.136 200 c -7.73909 0 -15.4782 0 -23.2173 0" />
  <g
     id="text8280-1-8"
     style="font-style:normal;font-variant:normal;font-weight:300;font-stretch:normal;font-size:50px;line-height:125%;font-family:Roboto;-inkscape-font-specification:'Roboto Light';letter-spacing:0px;word-spacing:0px;fill:#000000;fill-opacity:1;stroke:none;stroke-width:1px;stroke-linecap:butt;stroke-linejoin:miter;stroke-opacity:1">
    <path
       id="path8421"
       d="m 329.998 148.272 l -21.2647 0 l 0 -1.31836 l 12.1338 -13.9648 q 3.24707 -3.75977 4.56543 -6.27442 q 1.31836 -2.53906 1.31836 -4.95605 q 0 -3.95508 -2.00196 -6.07911 q -2.00195 -2.14843 -6.17676 -2.14843 q -4.37011 0 -6.76269 2.56347 q -2.39258 2.56348 -2.39258 6.64063 l -1.12305 0 l -0.0488 -0.14649 q -0.12207 -4.32128 2.70996 -7.34863 q 2.85644 -3.02734 7.61718 -3.02734 q 4.37012 0 6.9336 2.49023 q 2.58789 2.49024 2.58789 7.05567 q 0 2.9541 -1.92871 6.03027 q -1.9043 3.07617 -5.39551 7.15332 l -10.1807 11.8897 l 0.0488 0.12207 l 19.3604 0 l 0 1.31836 Z"
       style="" />
  </g>
  <path
     id="path8264-1"
     style="fill:none;fill-rule:evenodd;stroke:#000000;stroke-width:5;stroke-linecap:butt;stroke-linejoin:miter;stroke-opacity:1;stroke-miterlimit:4;stroke-dasharray:none"
     d="m 385.136 200 c -7.73909 0 -15.4782 0 -23.2173 0 m -3.33536 91.3542 l -19.7074 -11.9683 m -47.5214 79.1971 l -11.9683 -19.7074 m -79.3858 46.26 c 0 -7.73908 0 -15.4782 0 -23.2173 m -91.3542 -3.33535 l 11.9683 -19.7074 M 41.4171 291.354 L 61.1245 279.386 M 14.8645 200 c 7.73908 0 15.4782 0 23.2172 0 m 3.33535 -91.3542 l 19.7074 11.9683 m 47.5213 -79.1971 l 11.9683 19.7074 m 79.3858 -46.26 c 0 7.73908 0 15.4782 0 23.2172 m 91.3542 3.33533 l -11.9683 19.7074 m 79.1971 47.5214 l -19.7074 11.9683 M 385.136 200 c -7.73909 0 -15.4782 0 -23.2173 0" />
  <g
     id="text8280-1-8-6"
     style="font-style:normal;font-variant:normal;font-weight:300;font-stretch:normal;font-size:50px;line-height:125%;font-family:Roboto;-inkscape-font-specification:'Roboto Light';letter-spacing:0px;word-spacing:0px;fill:#000000;fill-opacity:1;stroke:none;stroke-width:1px;stroke-linecap:butt;stroke-linejoin:miter;stroke-opacity:1">
    <path
       id="path8418"
       d="m 342.557 198.95 q 4.46777 0 7.03125 -2.22168 q 2.56348 -2.22168 2.56348 -5.46875 q 0 -3.58887 -2.22168 -5.90821 q -2.19727 -2.31933 -6.49414 -2.31933 q -3.95508 0 -6.56739 2.31933 q -2.6123 2.31934 -2.6123 6.17676 l -1.12305 0 l -0.0488 -0.14648 q -0.12207 -4.32129 2.88086 -6.98243 q 3.02735 -2.68554 7.47071 -2.68554 q 4.58984 0 7.2998 2.6123 q 2.73438 2.58789 2.73438 7.03125 q 0 2.80762 -1.78223 5.0293 q -1.75781 2.22168 -4.76074 3.19824 q 3.46679 0.85449 5.39551 3.10059 q 1.92871 2.24609 1.92871 5.66406 q 0 4.63867 -2.95411 7.2998 q -2.9541 2.63672 -7.6416 2.63672 q -4.5166 0 -7.9834 -2.66113 q -3.46679 -2.68555 -3.34472 -7.59277 l 0.0488 -0.14649 l 1.12304 0 q 0 3.95508 2.88086 6.51856 q 2.90528 2.56347 7.27539 2.56347 q 4.39453 0 6.83594 -2.24609 q 2.44141 -2.27051 2.44141 -6.27441 q 0 -4.1504 -2.80762 -6.12793 q -2.7832 -2.00196 -7.56836 -2.00196 l -2.70996 0 l 0 -1.36718 l 2.70996 0 Z"
       style="" />
  </g>
  <g
     id="text8280-1-8-4"
     style="font-style:normal;font-variant:normal;font-weight:300;font-stretch:normal;font-size:50px;line-height:125%;font-family:Roboto;-inkscape-font-specification:'Roboto Light';letter-spacing:0px;word-spacing:0px;fill:#000000;fill-opacity:1;stroke:none;stroke-width:1px;stroke-linecap:butt;stroke-linejoin:miter;stroke-opacity:1">
    <path
       id="path8415"
       style=""
       d="m 325.32 277.516 l 6.15234 0 l 0 1.31836 l -6.15234 0 l 0 9.69239 l -1.31836 0 l 0 -9.69239 l -17.2363 0 l 0 -0.73242 l 16.9678 -25.1221 l 1.58691 0 l 0 24.5361 Z m -16.5039 0 l 15.1855 0 l 0 -22.6807 l -0.14648 -0.0488 l -1.9043 3.14941 l -13.1348 19.5801 Z" />
  </g>
  <g
     id="text8280-1-8-9"
     style="font-style:normal;font-variant:normal;font-weight:300;font-stretch:normal;font-size:50px;line-height:125%;font-family:Roboto;-inkscape-font-specification:'Roboto Light';letter-spacing:0px;word-spacing:0px;fill:#000000;fill-opacity:1;stroke:none;stroke-width:1px;stroke-linecap:butt;stroke-linejoin:miter;stroke-opacity:1">
    <path
       id="path8412"
       style=""
       d="m 257.153 318.678 l 1.90429 -19.3848 l 16.8457 0 l 0 1.29394 l -15.6494 0 l -1.48926 15.0879 q 1.53809 -1.53809 3.34473 -2.31934 q 1.83105 -0.78125 5.37109 -0.87891 q 4.24805 -0.12207 7.00684 2.90528 q 2.75879 3.02734 2.75879 8.12988 q 0 5.44434 -2.56348 8.64258 q -2.56347 3.19824 -7.93457 3.19824 q -4.32129 0 -7.17773 -2.44141 q -2.85645 -2.46582 -2.73438 -7.27539 l 0.0488 -0.14648 l 1.14746 0 q 0 4.19922 2.34375 6.37207 q 2.34375 2.17285 6.37207 2.17285 q 4.73633 0 6.9336 -2.6123 q 2.22168 -2.61231 2.22168 -7.86133 q 0 -4.49219 -2.22168 -7.08008 q -2.19727 -2.58789 -6.17676 -2.58789 q -3.90625 0 -6.15235 1.31836 q -2.22168 1.29394 -3.19824 3.85742 l -1.00097 -0.39063 Z" />
  </g>
  <g
     id="text8280-1-8-98"
     style="font-style:normal;font-variant:normal;font-weight:300;font-stretch:normal;font-size:50px;line-height:125%;font-family:Roboto;-inkscape-font-specification:'Roboto Light';letter-spacing:0px;word-spacing:0px;fill:#000000;fill-opacity:1;stroke:none;stroke-width:1px;stroke-linecap:butt;stroke-linejoin:miter;stroke-opacity:1">
    <path
       id="path8409"
       style=""
       d="m 200.256 319.18 q 1.90429 0 3.78418 0.41504 q 1.87988 0.39063 3.41797 1.29395 l -0.5127 1.24512 q -1.58691 -0.90332 -3.10059 -1.26954 q -1.48925 -0.36621 -3.58886 -0.36621 q -4.05274 0 -6.78711 3.10059 q -2.70996 3.07617 -2.70996 8.17871 l 0 7.29981 q 1.19629 -2.68555 3.78418 -4.44336 q 2.6123 -1.78223 5.98144 -1.78223 q 4.83399 0 7.42188 3.10059 q 2.6123 3.07617 2.6123 8.54492 q 0 4.98047 -2.9541 8.12988 q -2.92969 3.125 -7.56836 3.125 q -4.63867 0 -7.61719 -3.54004 q -2.97851 -3.56445 -2.97851 -9.47266 l 0 -10.9375 q 0 -5.5664 3.10058 -9.08203 q 3.10059 -3.54004 7.71485 -3.54004 Z m -9.49707 23.4619 l 0 0.0732 q 0 5.27344 2.58789 8.52051 q 2.58789 3.22265 6.68945 3.22265 q 4.12598 0 6.66504 -2.85644 q 2.53906 -2.85645 2.53906 -7.10449 q 0 -5.0293 -2.19726 -7.66602 q -2.19727 -2.66113 -6.68946 -2.66113 q -3.75976 0 -6.66504 2.51465 q -2.90527 2.51465 -2.90527 5.95703 l -0.0244 0 Z" />
  </g>
  <g
     id="g8554">
    <circle
       id="circle8530"
       style="opacity:1;fill:none;fill-opacity:1;stroke:url(#linearGradient8458);stroke-width:11.3493948;stroke-linecap:round;stroke-linejoin:round;stroke-miterlimit:4;stroke-dasharray:none;stroke-dashoffset:0;stroke-opacity:1"
       cx="200"
       cy="200"
       r="194.325" />
  </g>
  <g
     id="text8280-1-8-5"
     style="font-style:normal;font-variant:normal;font-weight:300;font-stretch:normal;font-size:50px;line-height:125%;font-family:Roboto;-inkscape-font-specification:'Roboto Light';letter-spacing:0px;word-spacing:0px;fill:#000000;fill-opacity:1;stroke:none;stroke-width:1px;stroke-linecap:butt;stroke-linejoin:miter;stroke-opacity:1">
    <path
       id="path8406"
       style=""
       d="m 135.294 300.868 q -5.34668 6.00586 -8.91113 13.6963 q -3.56446 7.69042 -3.56446 17.334 l 0 3.19824 l -1.31836 0 l 0 -3.19824 q 0 -8.83789 3.27149 -16.6748 q 3.27148 -7.83691 8.93554 -14.3555 l -21.1182 0 l 0 -1.31836 l 22.7051 0 l 0 1.31836 Z" />
  </g>
  <g
     id="text8280-1-8-2"
     style="font-style:normal;font-variant:normal;font-weight:300;font-stretch:normal;font-size:50px;line-height:125%;font-family:Roboto;-inkscape-font-specification:'Roboto Light';letter-spacing:0px;word-spacing:0px;fill:#000000;fill-opacity:1;stroke:none;stroke-width:1px;stroke-linecap:butt;stroke-linejoin:miter;stroke-opacity:1">
    <path
       id="path8403"
       style=""
       d="m 92.9633 261.768 q 0 2.97852 -1.80664 5.2002 q -1.78223 2.22168 -4.66309 3.125 q 3.32031 0.92773 5.39551 3.32031 q 2.09961 2.39258 2.09961 5.61523 q 0 4.6875 -3.17383 7.34864 q -3.17383 2.66113 -7.88574 2.66113 q -5.0293 0 -8.3252 -2.63672 q -3.27148 -2.66113 -3.27148 -7.37305 q 0 -3.22265 2.12402 -5.61523 q 2.14844 -2.41699 5.63965 -3.32031 q -3.05176 -0.90332 -4.90723 -3.125 q -1.85547 -2.22168 -1.85547 -5.2002 q 0 -4.44336 2.97852 -6.86035 q 2.97852 -2.44141 7.56836 -2.44141 q 4.32129 0 7.20215 2.44141 q 2.88086 2.44141 2.88086 6.86035 Z m -0.317383 17.3828 q 0 -3.73536 -2.85645 -6.05469 q -2.83203 -2.34375 -6.90918 -2.34375 q -4.3457 0 -7.2998 2.34375 q -2.92969 2.31933 -2.92969 6.05469 q 0 3.93066 2.92969 6.25 q 2.92969 2.31933 7.34863 2.31933 q 4.10156 0 6.90918 -2.31933 q 2.80762 -2.34375 2.80762 -6.25 Z m -1.00098 -17.5049 q 0 -3.46679 -2.56348 -5.66406 q -2.56348 -2.19727 -6.20117 -2.19727 q -3.97949 0 -6.61621 2.12403 q -2.6123 2.09961 -2.6123 5.7373 q 0 3.54004 2.63672 5.66406 q 2.66113 2.12403 6.64063 2.12403 q 3.66211 0 6.17676 -2.12403 q 2.53906 -2.14843 2.53906 -5.66406 Z" />
  </g>
  <g
     id="text8280-1-8-67"
     style="font-style:normal;font-variant:normal;font-weight:300;font-stretch:normal;font-size:50px;line-height:125%;font-family:Roboto;-inkscape-font-specification:'Roboto Light';letter-spacing:0px;word-spacing:0px;fill:#000000;fill-opacity:1;stroke:none;stroke-width:1px;stroke-linecap:butt;stroke-linejoin:miter;stroke-opacity:1">
    <path
       id="path8442"
       style=""
       d="m 55.657 216.968 q 4.27246 0 6.7627 -2.75879 q 2.49023 -2.75878 2.49023 -7.61718 l 0 -7.12891 q -1.36719 2.53906 -3.88184 3.97949 q -2.49023 1.44043 -5.59082 1.44043 q -4.61426 0 -7.54395 -3.24707 q -2.90527 -3.24707 -2.90527 -7.9834 q 0 -5.02929 2.97852 -8.47168 q 3.00293 -3.46679 7.66602 -3.46679 q 4.78516 0 7.78809 3.24707 q 3.00293 3.24707 3.00293 9.30176 l 0 12.2803 q 0 5.46875 -2.9541 8.61816 q -2.9541 3.125 -7.8125 3.125 q -1.7334 0 -3.51563 -0.39062 q -1.78223 -0.39063 -3.6377 -1.14746 l 0.390625 -1.22071 q 1.61133 0.78125 3.14941 1.12305 q 1.5625 0.31738 3.61328 0.31738 Z m -0.219726 -13.3789 q 3.6377 0 6.0791 -1.92871 q 2.44141 -1.95313 3.39355 -4.73633 l 0 -2.63672 q 0 -5.41992 -2.56348 -8.3252 q -2.53906 -2.92968 -6.61621 -2.92968 q -4.10156 0 -6.66504 3.17382 q -2.56348 3.14942 -2.56348 7.44629 q 0 4.12598 2.41699 7.03125 q 2.44141 2.90528 6.51856 2.90528 Z" />
  </g>
  <g
     id="text8280-1-8-8"
     style="font-style:normal;font-variant:normal;font-weight:300;font-stretch:normal;font-size:50px;line-height:125%;font-family:Roboto;-inkscape-font-specification:'Roboto Light';letter-spacing:0px;word-spacing:0px;fill:#000000;fill-opacity:1;stroke:none;stroke-width:1px;stroke-linecap:butt;stroke-linejoin:miter;stroke-opacity:1">
    <path
       id="path8437"
       style=""
       d="m 74.4885 156.49 l -1.31836 0 l 0 -34.79 l -8.98438 1.9043 l 0 -1.12305 l 10.3027 -2.05078 l 0 36.0596 Z" />
    <path
       id="path8439"
       style=""
       d="m 111.305 143.941 q 0 6.12793 -2.83203 9.59473 q -2.83203 3.46679 -7.95899 3.46679 q -5.10253 0 -7.98339 -3.46679 q -2.88086 -3.49121 -2.88086 -9.59473 l 0 -10.4492 q 0 -6.10351 2.83203 -9.57031 q 2.85645 -3.49121 7.9834 -3.49121 q 5.10253 0 7.95898 3.49121 q 2.88086 3.4668 2.88086 9.57031 l 0 10.4492 Z m -1.31836 -10.4492 q 0 -5.37109 -2.46582 -8.54492 q -2.46582 -3.19824 -7.05566 -3.19824 q -4.61426 0 -7.05567 3.19824 q -2.44141 3.17383 -2.44141 8.54492 l 0 10.4004 q 0 5.29785 2.46582 8.54493 q 2.49023 3.24707 7.08007 3.24707 q 4.56543 0 7.00684 -3.22266 q 2.46582 -3.24707 2.46582 -8.56934 l 0 -10.4004 Z" />
  </g>
  <g
     id="text8280-1-8-24"
     style="font-style:normal;font-variant:normal;font-weight:300;font-stretch:normal;font-size:50px;line-height:125%;font-family:Roboto;-inkscape-font-specification:'Roboto Light';letter-spacing:0px;word-spacing:0px;fill:#000000;fill-opacity:1;stroke:none;stroke-width:1px;stroke-linecap:butt;stroke-linejoin:miter;stroke-opacity:1">
    <path
       id="path8432"
       style=""
       d="m 119.924 103.78 l -1.31836 0 l 0 -34.79 l -8.98437 1.9043 l 0 -1.12305 l 10.3027 -2.05078 l 0 36.0596 Z" />
    <path
       id="path8434"
       style=""
       d="m 147.268 103.78 l -1.31836 0 l 0 -34.79 l -8.98437 1.9043 l 0 -1.12305 l 10.3027 -2.05078 l 0 36.0596 Z" />
  </g>
  <path
     id="hour"
     style="color:#000000;font-style:normal;font-variant:normal;font-weight:normal;font-stretch:normal;font-size:medium;line-height:normal;font-family:sans-serif;text-indent:0;text-align:start;text-decoration:none;text-decoration-line:none;text-decoration-style:solid;text-decoration-color:#000000;letter-spacing:normal;word-spacing:normal;text-transform:none;writing-mode:lr-tb;direction:ltr;baseline-shift:baseline;text-anchor:start;white-space:normal;clip-rule:nonzero;display:inline;overflow:visible;visibility:visible;opacity:1;isolation:auto;mix-blend-mode:normal;color-interpolation:sRGB;color-interpolation-filters:linearRGB;solid-color:#000000;solid-opacity:1;fill:#000000;fill-opacity:1;fill-rule:evenodd;stroke:none;stroke-width:3.99987459;stroke-linecap:butt;stroke-linejoin:miter;stroke-miterlimit:4;stroke-dasharray:none;stroke-dashoffset:0;stroke-opacity:1;color-rendering:auto;image-rendering:auto;shape-rendering:auto;text-rendering:auto;enable-background:accumulate"
     d="M 198.82369,82.397598 196.98876,219.64113 208.98519,219.36437 200.8231,82.351478 Z"
     inkscape:connector-curvature="0" />
  <path
     id="minute"
     style="color:#000000;font-style:normal;font-variant:normal;font-weight:normal;font-stretch:normal;font-size:medium;line-height:normal;font-family:sans-serif;text-indent:0;text-align:start;text-decoration:none;text-decoration-line:none;text-decoration-style:solid;text-decoration-color:#000000;letter-spacing:normal;word-spacing:normal;text-transform:none;writing-mode:lr-tb;direction:ltr;baseline-shift:baseline;text-anchor:start;white-space:normal;clip-rule:nonzero;display:inline;overflow:visible;visibility:visible;opacity:1;isolation:auto;mix-blend-mode:normal;color-interpolation:sRGB;color-interpolation-filters:linearRGB;solid-color:#000000;solid-opacity:1;fill:#383838;fill-opacity:1;fill-rule:evenodd;stroke:none;stroke-width:3.99997973;stroke-linecap:butt;stroke-linejoin:miter;stroke-miterlimit:4;stroke-dasharray:none;stroke-dashoffset:0;stroke-opacity:1;color-rendering:auto;image-rendering:auto;shape-rendering:auto;text-rendering:auto;enable-background:accumulate"
     d="m 196.97826,59.405562 0.022,183.236298 11.99543,-0.32889 -10.01821,-182.962222 z"
     inkscape:connector-curvature="0" />
  <path
     id="second"
     style="color:#000000;font-style:normal;font-variant:normal;font-weight:normal;font-stretch:normal;font-size:medium;line-height:normal;font-family:sans-serif;text-indent:0;text-align:start;text-decoration:none;text-decoration-line:none;text-decoration-style:solid;text-decoration-color:#000000;letter-spacing:normal;word-spacing:normal;text-transform:none;writing-mode:lr-tb;direction:ltr;baseline-shift:baseline;text-anchor:start;white-space:normal;clip-rule:nonzero;display:inline;overflow:visible;visibility:visible;opacity:1;isolation:auto;mix-blend-mode:normal;color-interpolation:sRGB;color-interpolation-filters:linearRGB;solid-color:#000000;solid-opacity:1;fill:#ff0000;fill-opacity:1;fill-rule:evenodd;stroke:none;stroke-width:3.99997973;stroke-linecap:butt;stroke-linejoin:miter;stroke-miterlimit:4;stroke-dasharray:none;stroke-dashoffset:0;stroke-opacity:1;color-rendering:auto;image-rendering:auto;shape-rendering:auto;text-rendering:auto;enable-background:accumulate"
     d="M 198.0808,40.903071 196.98795,261.12502 208.986,260.91211 200.08047,40.86759 Z"
     inkscape:connector-curvature="0" />
  <circle
     id="path8573"
     style="opacity:1;fill:#ff0000;fill-opacity:1;stroke:none;stroke-width:2;stroke-linecap:butt;stroke-linejoin:round;stroke-miterlimit:4;stroke-dasharray:none;stroke-dashoffset:0;stroke-opacity:1"
     cx="200"
     cy="200"
     r="8.59651" />
  <path
     id="clock-3-9-6"
     style="opacity:1;fill:#000000;fill-opacity:0.03831417;stroke:none;stroke-width:2;stroke-linecap:round;stroke-linejoin:round;stroke-miterlimit:4;stroke-dasharray:none;stroke-dashoffset:0;stroke-opacity:1"
     d="M 199.976 11.1738 A 188.96 188.96 0 0 0 11.0154 200.134 A 188.96 188.96 0 0 0 35.6271 292.91 A 241.2 241.2 0 0 1 32.6777 256.533 A 241.2 241.2 0 0 1 246.379 17.2038 A 188.96 188.96 0 0 0 199.976 11.1738 Z" />
  <desc
     id="desc55">Created with Snap</desc>
</svg>
